<svg xmlns="http://www.w3.org/2000/svg" viewBox="0 0 64 64">
  <rect width="64" height="64" rx="16" fill="#183a2d"/>
  <path d="M20 36c0-6 4.7-10.7 10.5-10.7 2.2 0 4.2.7 5.9 1.8L44 19h6l-6.1 10.2c.8 1.5 1.3 3.2 1.3 4.8C45.2 40 40.4 45 34.5 45c-4.1 0-7.7-2.4-9.4-5.9l-2.8 4.7H16l5.8-9.6c-.5-1.1-.9-2.4-.9-3.8Zm5.2 0c0 3 2.4 5.4 5.3 5.4s5.3-2.4 5.3-5.4-2.4-5.4-5.3-5.4-5.3 2.4-5.3 5.4Zm13.7 0c0 2.4-1 4.6-2.5 6.1h4.1c2.9 0 5.3-2.4 5.3-5.4s-2.4-5.4-5.3-5.4h-1.2c-.2 1.3-.4 2.9-.4 4.7Z" fill="#f7f3ec"/>
</svg>
